<?xml version="1.0" ?><!-- Uploaded to: SVG Repo, www.svgrepo.com, Generator: SVG Repo Mixer Tools -->
<svg width="800px" height="800px" viewBox="0 0 64 64" data-name="Layer 1" id="Layer_1" xmlns="http://www.w3.org/2000/svg"><defs><style>.cls-1{fill:#190933;}</style></defs><title/><path class="cls-1" d="M39.76,4.53a1,1,0,0,0,0,1.42,11.14,11.14,0,0,1,.08,15.6,1,1,0,0,0,0,1.41,1,1,0,0,0,.7.29,1,1,0,0,0,.72-.3,13.15,13.15,0,0,0-.1-18.42A1,1,0,0,0,39.76,4.53Z"/><path class="cls-1" d="M44.08,25.79a1,1,0,0,0,0,1.41,1,1,0,0,0,1.42,0,19.15,19.15,0,0,0-.1-26.9A1,1,0,0,0,44,.29a1,1,0,0,0,0,1.42A17.14,17.14,0,0,1,44.08,25.79Z"/><path class="cls-1" d="M35.61,18.72a1,1,0,0,0,.69.28,1,1,0,0,0,.73-.31,7.13,7.13,0,0,0-.11-9.91,1,1,0,0,0-1.41,0,1,1,0,0,0,0,1.42,5.11,5.11,0,0,1,.07,7.11A1,1,0,0,0,35.61,18.72Z"/><path class="cls-1" d="M24.24,4.53a1,1,0,0,0-1.41,0A13.15,13.15,0,0,0,22.73,23a1,1,0,0,0,.72.3,1,1,0,0,0,.7-.29,1,1,0,0,0,0-1.41A11.14,11.14,0,0,1,24.24,6,1,1,0,0,0,24.24,4.53Z"/><path class="cls-1" d="M18.59.29a19.15,19.15,0,0,0-.1,26.9,1,1,0,0,0,1.42,0,1,1,0,0,0,0-1.41A17.14,17.14,0,0,1,20,1.71,1,1,0,0,0,20,.29,1,1,0,0,0,18.59.29Z"/><path class="cls-1" d="M28.49,8.78a1,1,0,0,0-1.41,0A7.13,7.13,0,0,0,27,18.69a1,1,0,0,0,.73.31,1,1,0,0,0,.72-1.69,5.11,5.11,0,0,1,.07-7.11A1,1,0,0,0,28.49,8.78Z"/><path class="cls-1" d="M18,58a3,3,0,0,0-3,3v2a1,1,0,0,0,1,1h6a1,1,0,0,0,1-1V61a3,3,0,0,0-2.66-3L22,52.5H42L43.66,58A3,3,0,0,0,41,61v2a1,1,0,0,0,1,1h6a1,1,0,0,0,1-1V61a3,3,0,0,0-3-3h-.26L33.26,16.71a3,3,0,1,0-2.52,0L18.26,58Zm3,3v1H17V61a1,1,0,0,1,1-1h2A1,1,0,0,1,21,61ZM36.85,35.5h-9l7.65-4.59Zm.3,1,2.12,7H25.77l11.37-7Zm-9.72-1.94L32,19.46l3.16,10.46Zm-.58,1.94h8.38l-10.3,6.34Zm-2.42,8H37.64L22.38,51.29Zm-.07,7,15.28-6.79,2,6.79ZM47,61v1H43V61a1,1,0,0,1,1-1h2A1,1,0,0,1,47,61ZM32,13a1,1,0,1,1-1,1A1,1,0,0,1,32,13Z"/></svg>