<svg xmlns="http://www.w3.org/2000/svg" xmlns:xlink="http://www.w3.org/1999/xlink" xmlns:svgjs="http://svgjs.dev/svgjs" width="1920" height="1000" preserveAspectRatio="none" viewBox="0 0 1920 1000"><g mask="url(&quot;#SvgjsMask1039&quot;)" fill="none"><rect width="1920" height="1000" x="0" y="0" fill="rgba(25, 90, 34, 1)"></rect><path d="M28 1000L1028 0L1262 0L262 1000z" fill="url(&quot;#SvgjsLinearGradient1040&quot;)"></path><path d="M688.6 1000L1688.6 0L2450.6 0L1450.6 1000z" fill="url(&quot;#SvgjsLinearGradient1040&quot;)"></path><path d="M1847 1000L847 0L335.5 0L1335.5 1000z" fill="url(&quot;#SvgjsLinearGradient1041&quot;)"></path><path d="M1213.4 1000L213.4000000000001 0L-229.0999999999999 0L770.9000000000001 1000z" fill="url(&quot;#SvgjsLinearGradient1041&quot;)"></path><path d="M1365.4452434566028 1000L1920 445.4452434566027L1920 1000z" fill="url(&quot;#SvgjsLinearGradient1040&quot;)"></path><path d="M0 1000L554.5547565433973 1000L 0 445.4452434566027z" fill="url(&quot;#SvgjsLinearGradient1041&quot;)"></path></g><defs><mask id="SvgjsMask1039"><rect width="1920" height="1000" fill="#ffffff"></rect></mask><linearGradient x1="0%" y1="100%" x2="100%" y2="0%" id="SvgjsLinearGradient1040"><stop stop-color="rgba(25, 104, 36, 1)" offset="0"></stop><stop stop-opacity="0" stop-color="rgba(25, 104, 36, 1)" offset="0.66"></stop></linearGradient><linearGradient x1="100%" y1="100%" x2="0%" y2="0%" id="SvgjsLinearGradient1041"><stop stop-color="rgba(25, 104, 36, 1)" offset="0"></stop><stop stop-opacity="0" stop-color="rgba(25, 104, 36, 1)" offset="0.66"></stop></linearGradient></defs></svg>