<svg xmlns="http://www.w3.org/2000/svg" width="38.073" height="40.359" viewBox="0 0 38.073 40.359"><g id="suitcase-svgrepo-com" transform="translate(0.75 0.75)"><path id="Path_3" data-name="Path 3" d="M4,10.572A4.572,4.572,0,0,1,8.572,6H36a4.572,4.572,0,0,1,4.572,4.572v9.143A4.572,4.572,0,0,1,36,24.286H8.572A4.572,4.572,0,0,1,4,19.715Z" transform="translate(-4 0.857)" fill="#2eaf60" opacity="0.3"></path><path id="Path_4" data-name="Path 4" d="M22.286,28.144V23.572m0,4.572v4.572m0-4.572H36a4.572,4.572,0,0,0,4.572-4.572M22.286,28.144H8.572A4.572,4.572,0,0,1,4,23.572m36.573,0V37.287A4.572,4.572,0,0,1,36,41.859H8.572A4.572,4.572,0,0,1,4,37.287V23.572m36.573,0V14.429A4.572,4.572,0,0,0,36,9.857H8.572A4.572,4.572,0,0,0,4,14.429v9.143M29.144,9.857V7.572A4.572,4.572,0,0,0,24.572,3H20a4.572,4.572,0,0,0-4.572,4.572V9.857" transform="translate(-4 -3)" fill="none" stroke="#000" stroke-linecap="round" stroke-linejoin="round" stroke-width="1.5"></path></g></svg>