<svg xmlns="http://www.w3.org/2000/svg" width="42.645" height="42.645" viewBox="0 0 42.645 42.645"><g id="user-2-svgrepo-com" transform="translate(0.75 0.75)"><g id="Group_4" data-name="Group 4" transform="translate(0 0)" opacity="0.3"><path id="Path_5" data-name="Path 5" d="M12.18,21.065h-.23l.115-.115Z" transform="translate(8.507 20.08)"></path><path id="Path_6" data-name="Path 6" d="M37.272,38.919q.014-.243.015-.489a8,8,0,0,0-8-8H17.858a8,8,0,0,0-8,8q0,.247.015.489a20.572,20.572,0,1,1,27.4,0Zm-13.7-15.347a6.857,6.857,0,1,0-6.857-6.857A6.857,6.857,0,0,0,23.572,23.572Z" transform="translate(-3 -3)" fill="#2eaf60" fill-rule="evenodd"></path></g><path id="Path_7" data-name="Path 7" d="M37.287,38.906c0-3.7-2.678-8.476-6.857-8.476H16.715c-4.179,0-6.857,4.774-6.857,8.476M3,23.572A20.572,20.572,0,1,1,23.572,44.145,20.572,20.572,0,0,1,3,23.572Zm27.43-6.857a6.857,6.857,0,1,1-6.857-6.857A6.857,6.857,0,0,1,30.43,16.715Z" transform="translate(-3 -3)" fill="none" stroke="#000" stroke-width="1.5"></path></g></svg>